# xmcd CD database file
#
# Track frame offsets:
#	150
#	14890
#	27908
#	41738
#	55125
#	68000
#	81870
#	94610
#	107893
#	121215
#	135523
#	148938
#	163340
#	177788
#
# Disc length: 2547 seconds
#
# Revision: 0
# Processed by: cddbd v1.4PL0 Copyright (c) Steve Scherf et al.
# Submitted via: CDex 1.50
#
DISCID=c409f10e
DTITLE=Clifford Gibson - Beat You Doing It
DYEAR=1991
DGENRE=Blues
TTITLE0=Bad Luck Dice (1929)
TTITLE1=Levee Camp Moan (1929)
TTITLE2=Hard Headed Blues (1929)
TTITLE3=Blues Without A Dime (1929)
TTITLE4=Jive Me Blues (1929)
TTITLE5=Society Blues (1929)
TTITLE6=Ice And Snow Blues (1929)
TTITLE7=Drayman Blues (1929)
TTITLE8=Old Time Rider (1929)
TTITLE9=Tired Of Being Mistreated Part 1 (1929)
TTITLE10=Brooklyn Blues (1929)
TTITLE11=Beat You Doing It (1929)
TTITLE12=Sunshine Moan (1929)
TTITLE13=Stop Your Rambling (1929)
EXTD=YEAR: 1991
EXTT0=
EXTT1=
EXTT2=
EXTT3=
EXTT4=
EXTT5=
EXTT6=
EXTT7=
EXTT8=
EXTT9=
EXTT10=
EXTT11=
EXTT12=
EXTT13=
PLAYORDER=
